<?xml version="1.0" encoding="utf-8"?>
<!-- Generator: Adobe Illustrator 23.0.1, SVG Export Plug-In . SVG Version: 6.00 Build 0)  -->
<svg version="1.1" id="レイヤー_1" xmlns="http://www.w3.org/2000/svg" xmlns:xlink="http://www.w3.org/1999/xlink" x="0px"
	 y="0px" viewBox="0 0 205 80" style="enable-background:new 0 0 205 80;" xml:space="preserve">
<style type="text/css">
	.st0{fill:#0057B8;}
	.st1{fill:#FFFFFF;}
</style>
<title>his_logo_blue</title>
<g>
	<g>
		<circle class="st0" cx="169.4" cy="39.8" r="35.6"/>
		<path class="st1" d="M169.2,62c-3.8,0.1-7.5-1-10.6-3.2c-2.7-2.1-4.3-5.1-4.6-8.5V50h8.2v0.2c0.6,2.9,3.7,5,7.3,5s6.9-2.2,6.9-5.5
			s-1.8-4.5-5.7-5.7l-5.4-1.7c-5.1-1.4-11.1-4.6-11.1-12.1s6.3-12.6,14.9-12.6c3.5-0.1,7,1,9.8,3.2c2.6,2.1,4.2,5.2,4.3,8.5v0.2
			h-8.3v-0.2c-0.5-2.9-3.1-5-6.1-4.8c-3.7,0-6.3,2.4-6.3,5.5s0.9,3.9,5.2,5.2l4.6,1.4c3,0.8,5.9,2.1,8.4,4c2.5,2.1,4,5.2,3.9,8.5
			c0.1,3.9-1.7,7.5-4.8,9.8C176.7,61,173,62.1,169.2,62z"/>
	</g>
	<g>
		<polygon class="st0" points="62.5,73.4 0,73.4 29.1,6.2 91.6,6.2 		"/>
		<polygon class="st1" points="63.4,18.4 55.8,36 39.1,36 46.7,18.4 37.7,18.4 19.3,61.1 28.3,61.1 35.6,44.1 52.3,44.1 44.9,61.1 
			53.9,61.1 72.4,18.4 		"/>
	</g>
	<g>
		<polygon class="st0" points="108.4,73.4 71.5,73.4 100.6,6.2 137.5,6.2 		"/>
		<polygon class="st1" points="109.2,18.4 90.8,61.1 99.7,61.1 118.2,18.4 		"/>
	</g>
</g>
</svg>
